<svg width="25" height="24" viewBox="0 0 25 24" fill="none" xmlns="http://www.w3.org/2000/svg">
<g clip-path="url(#clip0_149_13484)">
<path d="M8.5 16H5.93C3.64 16 2.5 14.86 2.5 12.57V5.43C2.5 3.14 3.64 2 5.93 2H10.5C12.79 2 13.93 3.14 13.93 5.43" stroke="#793EF5" stroke-width="1.5" stroke-linecap="round" stroke-linejoin="round"/>
<path d="M19.0703 22H14.5003C12.2103 22 11.0703 20.86 11.0703 18.57V11.43C11.0703 9.14 12.2103 8 14.5003 8H19.0703C21.3603 8 22.5003 9.14 22.5003 11.43V18.57C22.5003 20.86 21.3603 22 19.0703 22Z" stroke="#793EF5" stroke-width="1.5" stroke-linecap="round" stroke-linejoin="round"/>
<path d="M15.3701 15H18.6301" stroke="#793EF5" stroke-width="1.5" stroke-linecap="round" stroke-linejoin="round"/>
<path d="M17 16.6301V13.3701" stroke="#793EF5" stroke-width="1.5" stroke-linecap="round" stroke-linejoin="round"/>
</g>
<defs>
<clipPath id="clip0_149_13484">
<rect width="24" height="24" fill="white" transform="translate(0.5)"/>
</clipPath>
</defs>
</svg>
