<svg width="20" height="20" viewBox="0 0 20 20" fill="none" xmlns="http://www.w3.org/2000/svg">
<path d="M17.0835 8.4915H14.6752C12.7002 8.4915 11.0918 6.88317 11.0918 4.90817V2.49984C11.0918 2.0415 10.7168 1.6665 10.2585 1.6665H6.72516C4.1585 1.6665 2.0835 3.33317 2.0835 6.30817V13.6915C2.0835 16.6665 4.1585 18.3332 6.72516 18.3332H13.2752C15.8418 18.3332 17.9168 16.6665 17.9168 13.6915V9.32484C17.9168 8.8665 17.5418 8.4915 17.0835 8.4915ZM9.6085 11.2748C9.4835 11.3998 9.32516 11.4582 9.16683 11.4582C9.0085 11.4582 8.85016 11.3998 8.72516 11.2748L8.12516 10.6748V14.1665C8.12516 14.5082 7.84183 14.7915 7.50016 14.7915C7.1585 14.7915 6.87516 14.5082 6.87516 14.1665V10.6748L6.27516 11.2748C6.0335 11.5165 5.6335 11.5165 5.39183 11.2748C5.15016 11.0332 5.15016 10.6332 5.39183 10.3915L7.0585 8.72484C7.11683 8.67484 7.17516 8.63317 7.24183 8.59984C7.2585 8.5915 7.2835 8.58317 7.30016 8.57484C7.35016 8.55817 7.40016 8.54984 7.4585 8.5415C7.4835 8.5415 7.50016 8.5415 7.52516 8.5415C7.59183 8.5415 7.6585 8.55817 7.72516 8.58317C7.7335 8.58317 7.7335 8.58317 7.74183 8.58317C7.8085 8.60817 7.87516 8.65817 7.92516 8.70817C7.9335 8.7165 7.94183 8.7165 7.94183 8.72484L9.6085 10.3915C9.85016 10.6332 9.85016 11.0332 9.6085 11.2748Z" fill="#778188"/>
<path d="M14.5251 7.34158C15.3167 7.34991 16.4167 7.34991 17.3584 7.34991C17.8334 7.34991 18.0834 6.79158 17.7501 6.45825C16.5501 5.24991 14.4001 3.07491 13.1667 1.84158C12.8251 1.49991 12.2334 1.73325 12.2334 2.20825V5.11658C12.2334 6.33325 13.2667 7.34158 14.5251 7.34158Z" fill="#778188"/>
</svg>
