<svg width="16" height="16" viewBox="0 0 16 16" fill="none" xmlns="http://www.w3.org/2000/svg">
<path d="M5.55374 8.7687L5.55368 8.76875L5.55929 8.77562C5.90209 9.19634 6.38829 9.53257 6.95834 9.4778C7.51812 9.43092 7.94576 9.03647 8.21698 8.54989L8.21756 8.54884L9.47756 6.27551L9.47775 6.27515C9.9481 5.42491 10.4943 5.11865 10.9825 5.1392C11.4601 5.16586 11.9728 5.52699 12.361 6.4242C12.3611 6.42443 12.3612 6.42467 12.3613 6.42491L14.4473 11.2966L14.4475 11.2972C14.5369 11.5051 14.5953 11.7213 14.6233 11.9397C14.5933 11.7291 14.5345 11.5196 14.4462 11.3155C14.446 11.3151 14.4458 11.3147 14.4457 11.3143L12.3609 6.4453C12.3607 6.44489 12.3605 6.44447 12.3603 6.44406C12.2174 6.1058 12.0358 5.80699 11.8191 5.58252C11.6075 5.36328 11.3223 5.17591 10.9792 5.16043C10.6412 5.14113 10.3396 5.30812 10.1148 5.49669C9.87754 5.69566 9.66014 5.97174 9.47819 6.29393L9.47625 6.2974L8.21689 8.56959C8.21678 8.56978 8.21667 8.56997 8.21657 8.57016C7.89349 9.14912 7.41931 9.45868 6.95745 9.50161C6.49495 9.53804 5.97499 9.31677 5.55889 8.79605L5.4154 8.61343C5.08061 8.17624 4.63024 7.86646 4.1069 7.86646C4.10575 7.86646 4.10429 7.86644 4.10253 7.86643C4.08194 7.86628 4.02111 7.86585 3.94959 7.87867C3.38707 7.94742 2.97328 8.38334 2.72107 8.88011L2.72106 8.8801L2.71943 8.88337L1.57335 11.1822C1.53643 11.2553 1.50353 11.3297 1.47461 11.4051C1.50384 11.3277 1.53716 11.2512 1.57458 11.1758C1.57464 11.1757 1.57471 11.1755 1.57477 11.1754L2.72078 8.87673C2.72083 8.87664 2.72087 8.87655 2.72091 8.87647C3.03778 8.24289 3.50941 7.91416 3.97437 7.86352C4.43637 7.8132 4.9673 8.03631 5.40888 8.58433L5.55374 8.7687Z" fill="#292D32" stroke="white"/>
<path d="M4.64648 1.3335C3.54586 1.3335 2.65173 2.2244 2.64651 3.32381C2.65174 2.22544 3.54691 1.3335 4.64648 1.3335ZM4.64648 1.3335C5.75034 1.3335 6.64648 2.22964 6.64648 3.3335M4.64648 1.3335C5.74929 1.3335 6.64648 2.23069 6.64648 3.3335M6.64648 3.3335C6.64648 4.43735 5.75034 5.3335 4.64648 5.3335C5.74929 5.3335 6.64648 4.43631 6.64648 3.3335Z" fill="#292D32" stroke="white"/>
</svg>
