<svg width="20" height="20" viewBox="0 0 20 20" fill="none" xmlns="http://www.w3.org/2000/svg">
<path d="M2.72532 10C2.06699 9.20833 1.66699 8.19167 1.66699 7.08333C1.66699 4.56667 3.72533 2.5 6.25033 2.5H10.417C12.9337 2.5 15.0003 4.56667 15.0003 7.08333C15.0003 9.6 12.942 11.6667 10.417 11.6667H8.33366" stroke="#8A8B8C" stroke-width="1.5" stroke-linecap="round" stroke-linejoin="round"/>
<path d="M9.98334 17.5002H9.58333C7.06667 17.5002 5 15.4335 5 12.9168C5 10.4002 7.05833 8.3335 9.58333 8.3335H11.6667" stroke="#8A8B8C" stroke-width="1.5" stroke-linecap="round" stroke-linejoin="round"/>
<path d="M17.275 10C17.9333 10.7917 18.3333 11.8083 18.3333 12.9167C18.3333 15.4333 16.275 17.5 13.75 17.5" stroke="#292D32" stroke-width="1.5" stroke-linecap="round" stroke-linejoin="round"/>
</svg>
