<svg width="28" height="28" viewBox="0 0 28 28" fill="none" xmlns="http://www.w3.org/2000/svg">
<path d="M11.48 8.3535C11.48 9.74183 12.6116 10.8735 14 10.8735C15.3883 10.8735 16.52 9.74183 16.52 8.3535C16.52 6.96516 15.3883 5.8335 14 5.8335" stroke="#793EF5" stroke-width="1.5" stroke-linecap="round" stroke-linejoin="round"/>
<path d="M7.92161 22.1665C9.30994 22.1665 10.4416 21.0348 10.4416 19.6465C10.4416 18.2581 9.30994 17.1265 7.92161 17.1265C6.53328 17.1265 5.40161 18.2581 5.40161 19.6465C5.40161 21.0348 6.52161 22.1665 7.92161 22.1665Z" stroke="#793EF5" stroke-width="1.5" stroke-linecap="round" stroke-linejoin="round"/>
<path d="M20.0783 22.1665C21.4667 22.1665 22.5984 21.0348 22.5984 19.6465C22.5984 18.2581 21.4667 17.1265 20.0783 17.1265C18.69 17.1265 17.5583 18.2581 17.5583 19.6465C17.5583 21.0348 18.69 22.1665 20.0783 22.1665Z" stroke="#793EF5" stroke-width="1.5" stroke-linecap="round" stroke-linejoin="round"/>
</svg>
