<svg width="28" height="28" viewBox="0 0 28 28" fill="none" xmlns="http://www.w3.org/2000/svg">
<path d="M14.7933 4.62016C15.3533 5.4485 15.6799 6.44016 15.6799 7.5135C15.6683 10.3135 13.4633 12.5885 10.6866 12.6818C10.5699 12.6702 10.4299 12.6702 10.3016 12.6818C7.52495 12.5885 5.31995 10.3135 5.31995 7.5135C5.31995 4.65516 7.62995 2.3335 10.4999 2.3335" stroke="#793EF5" stroke-width="1.5" stroke-linecap="round" stroke-linejoin="round"/>
<path d="M19.145 4.6665C21.4083 4.6665 23.2283 6.49817 23.2283 8.74984C23.2283 10.9548 21.4783 12.7515 19.2966 12.8332C19.2033 12.8215 19.0983 12.8215 18.9933 12.8332" stroke="#793EF5" stroke-width="1.5" stroke-linecap="round" stroke-linejoin="round"/>
<path d="M4.85334 16.9865C2.03001 18.8765 2.03001 21.9565 4.85334 23.8348C8.06167 25.9815 13.3233 25.9815 16.5317 23.8348C19.355 21.9448 19.355 18.8648 16.5317 16.9865C13.335 14.8515 8.07334 14.8515 4.85334 16.9865Z" stroke="#793EF5" stroke-width="1.5" stroke-linecap="round" stroke-linejoin="round"/>
<path d="M21.3967 23.3335C22.2367 23.1585 23.0301 22.8202 23.6834 22.3185C25.5034 20.9535 25.5034 18.7018 23.6834 17.3368C23.0417 16.8468 22.2601 16.5202 21.4317 16.3335" stroke="#793EF5" stroke-width="1.5" stroke-linecap="round" stroke-linejoin="round"/>
</svg>
